<svg version="1.2" xmlns="http://www.w3.org/2000/svg" viewBox="0 0 15 17" width="15" height="17">
	<title>Group 2470</title>
	<style>
		.s0 { fill: #2ab6df } 
	</style>
	<path id="Icon awesome-hand-pointer" fill-rule="evenodd" class="s0" d="m13.3 7.5v2.7q0 0.1 0 0.2l-0.9 3.8c-0.1 0.4-0.5 0.8-1.1 0.8h-5.7c-0.3 0-0.7-0.2-0.9-0.5l-3.5-4.8c-0.3-0.5-0.2-1.2 0.3-1.5 0.4-0.4 1.1-0.3 1.5 0.2l0.9 1.2v-7.6c0-0.6 0.5-1.1 1.1-1.1 0.6 0 1.1 0.5 1.1 1.1v5.5h0.2v-1.1c0-0.6 0.5-1.1 1.1-1.1 0.6 0 1.1 0.5 1.1 1.1v1.1h0.2v-0.6c0-0.7 0.5-1.1 1.1-1.1 0.6 0 1.1 0.4 1.1 1.1v0.6h0.2c0-0.6 0.5-1.1 1.1-1.1 0.6 0 1.1 0.5 1.1 1.1zm-7 2.2h-0.2v2.7h0.2zm2.4 0h-0.2v2.6h0.2zm2.4 0h-0.2v2.6h0.2z"/>
</svg>