<svg version="1.2" xmlns="http://www.w3.org/2000/svg" viewBox="0 0 23 21" width="23" height="21">
	<title>oi_map-marker</title>
	<style>
		.s0 { fill: #ffffff } 
	</style>
	<path id="Path 52" fill-rule="evenodd" class="s0" d="m11 19c-0.6 0-1.2-0.2-1.6-0.6q-3.4-3.4-6.8-6.8c-0.8-0.9-0.8-2.3 0-3.1q3.4-3.4 6.8-6.8c0.9-0.9 2.3-0.9 3.1 0q3.4 3.4 6.8 6.8c0.9 0.8 0.9 2.2 0 3.1q-3.3 3.3-6.7 6.7c-0.5 0.5-1 0.6-1.6 0.7zm-0.1-1.1c0.6 0 0.8-0.3 1.1-0.6q2.5-2.4 4.9-4.8 0.8-0.9 1.7-1.8c0.4-0.5 0.4-0.9 0-1.4q-0.1-0.1-0.2-0.2-3.3-3.3-6.6-6.6c-0.6-0.5-1.1-0.5-1.7 0.1q-2.6 2.5-5.1 5.1-0.8 0.8-1.5 1.6c-0.5 0.5-0.5 0.9-0.1 1.5q0.3 0.3 0.6 0.6 2.7 2.7 5.5 5.5 0.4 0.4 0.9 0.8c0.1 0.1 0.3 0.2 0.5 0.2z"/>
	<path id="Path 53" class="s0" d="m11.9 8.6v-1.4c0.2 0.1 0.3 0.1 0.4 0.2q1 0.6 1.9 1.3c0.4 0.3 0.4 0.4 0 0.7q-1 0.7-1.9 1.4c-0.1 0-0.2 0-0.4 0.1v-1.5c-0.3 0-0.5 0-0.7 0q-0.9 0-1.7 0c-0.6 0-1 0.3-1 0.7q0 0.7 0 1.4 0 0.2 0 0.3-0.1 0.3-0.5 0.3-0.5 0-0.5-0.3c0-0.6 0-1.2 0-1.8 0-0.7 1-1.3 1.9-1.3q1.2 0 2.3 0c0.1 0 0.1 0 0.2-0.1z"/>
</svg>