<svg xmlns="http://www.w3.org/2000/svg" width="12" height="12" viewBox="0 0 12 12">
  <g id="ICONS-_-phone-Copy" data-name="ICONS-/-phone-Copy" transform="translate(-2 -2)">
    <g id="Group" transform="translate(2 2)">
      <path id="Path" d="M8.886,13.578A15.222,15.222,0,0,1,2.422,7.115a2.827,2.827,0,0,1,.227-3.3l.133-.135.143-.144.328-.33.033-.033A7.833,7.833,0,0,1,4.223,2.3a1.811,1.811,0,0,1,.727-.281,1.358,1.358,0,0,1,1.252.47,10.331,10.331,0,0,1,.9,1.183l.083.119.065.092a1.194,1.194,0,0,1-.076,1.514c-.3.345-.577.64-.9.958-.033.033-.029.085.058.192A17,17,0,0,0,9.48,9.682c.085.069.135.072.167.04.319-.322.614-.6.959-.9a1.2,1.2,0,0,1,1.514-.076l.092.065.117.081a10.334,10.334,0,0,1,1.186.906,1.357,1.357,0,0,1,.47,1.252,1.813,1.813,0,0,1-.281.727,7.879,7.879,0,0,1-.872.938l-.032.032-.33.328-.144.143-.135.133A2.825,2.825,0,0,1,8.886,13.578Z" transform="translate(-2 -2)" fill="#fff" fill-rule="evenodd"/>
    </g>
  </g>
</svg>
