<svg version="1.2" xmlns="http://www.w3.org/2000/svg" viewBox="0 0 18 15" width="18" height="15">
	<title>New Project</title>
	<style>
		.s0 { fill: #ffffff } 
	</style>
	<path id="Icon awesome-envelope copy" fill-rule="evenodd" class="s0" d="m11.2 8.9c-0.5 0.3-1.4 1.1-2.2 1.1-0.8 0-1.7-0.7-2.2-1.1-2.4-1.7-3-2.3-3.6-2.7-0.1 0-0.2 0-0.2 0.1v4.8c0 0.7 0.5 1.2 1.1 1.2h9.8c0.6 0 1.1-0.5 1.1-1.2v-4.8c0-0.1-0.1-0.1-0.2-0.1-0.6 0.4-1.2 1-3.6 2.7zm-2.2 0.4c0.5 0 1.3-0.7 1.7-1 3.1-2.3 3.4-2.5 4.1-3q0.2-0.2 0.2-0.5v-0.4c0-0.6-0.5-1.1-1.1-1.1h-9.8c-0.6 0-1.1 0.5-1.1 1.1v0.4q0 0.3 0.2 0.5c0.7 0.5 1 0.7 4.1 3 0.4 0.3 1.2 1 1.7 1z"/>
</svg>