<svg version="1.2" xmlns="http://www.w3.org/2000/svg" viewBox="0 0 23 29" width="23" height="29">
	<title>oi_map-marker</title>
	<style>
		.s0 { fill: #02a6db } 
		.s1 { fill: #ffffff } 
	</style>
	<path id="Icon awesome-map-marker-alt" fill-rule="evenodd" class="s0" d="m10 27.1c-7.6-10.9-9-12.1-9-16.1 0-5.5 4.5-10 10-10 5.5 0 10 4.5 10 10 0 4-1.4 5.2-9 16.1-0.5 0.7-1.5 0.7-2 0zm1-11.9c2.3 0 4.2-1.9 4.2-4.2 0-2.3-1.9-4.2-4.2-4.2-2.3 0-4.2 1.9-4.2 4.2 0 2.3 1.9 4.2 4.2 4.2z"/>
	<path id="Ellipse 40" class="s1" d="m11 15c-2.2 0-4-1.8-4-4 0-2.2 1.8-4 4-4 2.2 0 4 1.8 4 4 0 2.2-1.8 4-4 4z"/>
</svg>