<?xml version="1.0" encoding="UTF-8"?>
<svg width="28px" height="28px" viewBox="0 0 28 28" version="1.1" xmlns="http://www.w3.org/2000/svg" xmlns:xlink="http://www.w3.org/1999/xlink">
    <!-- Generator: sketchtool 64 (101010) - https://sketch.com -->
    <title>D3BD1ECE-3FE5-4F55-9546-8588AD9B738E</title>
    <desc>Created with sketchtool.</desc>
    <g id="Guidelines" stroke="none" stroke-width="1" fill="none" fill-rule="evenodd">
        <g id="Icon-Sticker-Sheet" transform="translate(-826.000000, -602.000000)" fill="#1E293E">
            <g id="ICONS-/-search" transform="translate(826.000000, 602.000000)">
                <g id="Group">
                    <path d="M18.8083411,17.34712 L24.6973526,23.2360624 C25.1008825,23.6395875 25.1008825,24.293831 24.6973526,24.6973561 C24.2938227,25.1008813 23.6395715,25.1008813 23.2360416,24.6973561 L17.3470626,18.8084462 C15.7969941,20.0346049 13.8789783,20.7147366 11.8569557,20.7147366 C6.96564231,20.7147366 3,16.7488644 3,11.8573683 C3,6.96587222 6.96564231,3 11.8569557,3 C16.7486754,3 20.714428,6.96576195 20.714428,11.8573683 C20.714428,13.8792142 20.034373,15.7971073 18.8083411,17.34712 Z M17.857214,11.8573683 C17.857214,8.54381581 15.1707022,5.8573683 11.8569857,5.8573683 C8.54363883,5.8573683 5.85721398,8.54390276 5.85721398,11.8573683 C5.85721398,15.1708338 8.54363883,17.8573683 11.8569857,17.8573683 C13.4624059,17.8573683 14.9671704,17.224249 16.0781407,16.1216714 C16.088701,16.1105088 16.088701,16.1105088 16.0995481,16.0995411 C16.1091569,16.0900386 16.1103352,16.0888733 16.1180074,16.0816087 C17.2250642,14.9650656 17.857214,13.4614449 17.857214,11.8573683 Z" id="search"></path>
                </g>
            </g>
        </g>
    </g>
</svg>