<svg version="1.2" xmlns="http://www.w3.org/2000/svg" viewBox="0 0 20 21" width="20" height="21">
	<title>New Project</title>
	<style>
		.s0 { fill: #ffffff } 
	</style>
	<path id="Path 64" fill-rule="evenodd" class="s0" d="m14.9 19h-12.9v-16.4c0.3-0.6 0.8-0.8 1.5-0.8 2.6 0.1 5.3 0 8 0.1 0.3 0 0.7 0.2 1 0.4q1.4 1.2 2.6 2.6c0.2 0.2 0.4 0.6 0.4 1 0.1 0.9 0 1.9 0.1 2.8 0 0.3 0.1 0.6 0.2 0.8q1.5 2.1 0.6 4.5c-0.1 0.2 0 0.5 0.1 0.7 0.7 0.7 1.4 1.4 2.1 2.1 0.8 0.8 0.8 1.5-0.3 2.2h-0.6c-0.7-0.7-1.4-1.3-2.1-2-0.1 0.8 0 1.6-0.7 2zm-3.3-16.5c-0.3 0-0.5 0-0.7 0-2.4 0-4.9 0-7.4 0-0.6 0-0.8 0.2-0.8 0.9q0 7 0 14.1c0 0.6 0.2 0.8 0.8 0.8 3.3 0 6.5 0 9.8 0 1.8 0 1.6 0.3 1.6-1.7 0-0.5-0.2-0.7-0.7-0.4-2.1 0.8-4.1 0.2-5.4-1.6-0.2-0.2-0.5-0.3-0.8-0.4-1 0-2.1 0-3.2 0-0.3 0-0.6-0.2-0.9-0.3 0.3-0.1 0.6-0.3 0.9-0.3 1.1-0.1 2.3 0 3.4 0q-0.2-0.9-0.1-1.7-0.1 0-0.2 0c-0.5 0.1-1.1 0-1.6 0-0.5 0-1.1 0.1-1.6 0-0.2 0-0.3-0.2-0.5-0.3 0.2-0.2 0.3-0.4 0.5-0.4q1.6-0.1 3.3 0 0.1 0 0.2 0.1c0.2-1 0.7-1.8 1.6-2.5 1.6-1.2 3.3-1.2 5-0.3v-2.7c-0.7 0-1.4 0-2 0q-0.7 0-0.9-0.4-0.1 0.1-0.2 0.1c-1.1 0-2.2 0-3.4 0-1.1 0-2.2 0-3.4 0-0.2 0-0.5-0.3-0.7-0.4 0.3-0.1 0.5-0.4 0.7-0.4q3.4 0 6.7 0 0 0 0-0.1c0-0.6 0-1.3 0-2.1zm4.5 9.7c0-2-1.7-3.7-3.7-3.7q-0.8 0-1.5 0.4 0.6-0.3 1.4-0.3c1.9 0 3.4 1.6 3.4 3.5 0 1.9-1.6 3.4-3.5 3.4-1.9 0-3.4-1.6-3.4-3.5q0-0.8 0.3-1.4-0.4 0.7-0.4 1.6c0 2 1.7 3.7 3.8 3.7 2 0 3.6-1.7 3.6-3.7zm-1 3.4c0.9 0.8 1.8 1.7 2.6 2.5 0.1 0.1 0.4 0 0.7 0-0.1-0.2 0-0.5-0.1-0.6-0.8-0.9-1.7-1.7-2.5-2.5-0.2 0.2-0.4 0.4-0.7 0.6zm-1-10.5q-0.9-0.9-1.8-1.8c0 0.4-0.1 0.8 0 1.3 0 0.2 0.3 0.5 0.5 0.5 0.4 0.1 0.9 0 1.3 0zm-5.8 2.3c-0.9 0-1.7 0-2.6-0.1-0.2 0-0.4-0.2-0.7-0.3 0.2-0.2 0.5-0.4 0.7-0.4q2.6-0.1 5.3 0c0.2 0 0.4 0.2 0.6 0.3-0.2 0.2-0.4 0.4-0.6 0.4-0.9 0.1-1.8 0.1-2.7 0.1zm-1.8 1.5c0.6 0 1.1-0.1 1.7 0 0.2 0 0.3 0.2 0.5 0.4-0.2 0.1-0.3 0.3-0.5 0.3q-1.7 0.1-3.5 0c-0.2 0-0.3-0.2-0.5-0.3 0.2-0.2 0.3-0.4 0.5-0.4 0.6-0.1 1.2 0 1.8 0zm-0.3 7.2c-0.5 0-1 0.1-1.5 0-0.2 0-0.3-0.2-0.5-0.4 0.2-0.1 0.3-0.3 0.5-0.3q1.5-0.1 3.1 0c0.1 0 0.3 0.2 0.5 0.3-0.2 0.2-0.4 0.4-0.5 0.4-0.6 0.1-1.1 0-1.6 0zm6.1-1.4c1.4 0 2.6-1.2 2.6-2.7 0-1.4-1.2-2.6-2.7-2.6-1.5 0-2.6 1.2-2.6 2.7 0 1.5 1.2 2.6 2.7 2.6z"/>
</svg>